<?xml version="1.0" encoding="UTF-8" standalone="no"?>
<!-- Created with Inkscape (http://www.inkscape.org/) -->

<svg
   xmlns:dc="http://purl.org/dc/elements/1.1/"
   xmlns:cc="http://creativecommons.org/ns#"
   xmlns:rdf="http://www.w3.org/1999/02/22-rdf-syntax-ns#"
   xmlns:svg="http://www.w3.org/2000/svg"
   xmlns="http://www.w3.org/2000/svg"
   xmlns:sodipodi="http://sodipodi.sourceforge.net/DTD/sodipodi-0.dtd"
   xmlns:inkscape="http://www.inkscape.org/namespaces/inkscape"
   width="128"
   height="128"
   viewBox="0 0 128 128"
   version="1.1"
   id="svg8"
   inkscape:version="0.92.4 (5da689c313, 2019-01-14)"
   sodipodi:docname="earth.svg">
  <defs
     id="defs2">
    <clipPath
       id="clipPath29990"
       clipPathUnits="userSpaceOnUse">
      <path
         inkscape:connector-curvature="0"
         id="path29992"
         style="fill:#a5ffff;fill-opacity:1;stroke:none;stroke-width:0.80000001;stroke-linecap:round;stroke-linejoin:round;stroke-miterlimit:10;stroke-dasharray:0.8, 2.4;stroke-dashoffset:0;stroke-opacity:1"
         d="m 290.4454,551.98864 -16.4067,-0.52081 -16.3405,-1.56033 -16.2087,-2.59358 -16.0116,-3.61637 -15.75,-4.62461 -15.425,-5.61423 -15.0378,-6.58123 -14.5901,-7.52174 -14.0837,-8.43196 -13.5206,-9.30823 -12.903,-10.14702 -12.2334,-10.94494 -11.5146,-11.69879 -10.74952,-12.4056 -9.94102,-13.0623 -9.09254,-13.6666 -8.20745,-14.2157 -7.2893,-14.7076 -6.34182,-15.1404 -5.36878,-15.5121 -4.37414,-15.8213 -3.36188,-16.067 -2.33609,-16.2478 -1.30088,-16.3632 -0.26044,-16.4129 0.78106,-16.3963 1.81939,-16.3137 2.85042,-16.1656 3.86996,-15.9521 4.87392,-15.6747 5.85825,-15.3339 6.81899,-14.9315 7.75228,-14.469 8.65435,-13.9481 9.52158,-13.3712 10.35045,-12.7404 11.13771,-12.0582 11.88,-11.3276 12.5745,-10.5513 13.2184,-9.7325 13.8091,-8.8746 14.3442,-7.9808 14.8214,-7.0551 15.2391,-6.1008 15.5953,-5.122 15.8888,-4.1225 16.1182,-3.1066 16.2829,-2.078 16.3818,-1.0411 16.4149,0 16.3819,1.0411 16.2828,2.078 16.1183,3.1066 15.8887,4.1225 15.5953,5.122 15.2391,6.1008 14.8215,7.0551 14.3441,7.9808 13.8091,8.8746 13.2184,9.7325 12.5746,10.5513 11.88,11.3276 11.1376,12.0582 10.3505,12.7404 9.5216,13.3712 8.6543,13.9481 7.7523,14.469 6.819,14.9315 5.8582,15.3339 4.874,15.6747 3.8699,15.9521 2.8504,16.1656 1.8194,16.3137 0.7811,16.3963 -0.2605,16.4129 -1.3008,16.3632 -2.3361,16.2478 -3.3619,16.067 -4.3741,15.8213 -5.3688,15.5121 -6.3418,15.1404 -7.2893,14.7076 -8.2075,14.2157 -9.0925,13.6666 -9.9411,13.0623 -10.7494,12.4056 -11.5147,11.69879 -12.2334,10.94494 -12.903,10.14702 -13.5205,9.30823 -14.0838,8.43196 -14.5901,7.52174 -15.0378,6.58123 -15.425,5.61423 -15.75,4.62461 -16.0115,3.61637 -16.2087,2.59358 -16.3406,1.56033 -16.4066,0.52081" />
    </clipPath>
    <clipPath
       id="clipPath29990-7"
       clipPathUnits="userSpaceOnUse">
      <path
         inkscape:connector-curvature="0"
         id="path29992-2"
         style="fill:#a5ffff;fill-opacity:1;stroke:none;stroke-width:0.80000001;stroke-linecap:round;stroke-linejoin:round;stroke-miterlimit:10;stroke-dasharray:0.8, 2.4;stroke-dashoffset:0;stroke-opacity:1"
         d="m 290.4454,551.98864 -16.4067,-0.52081 -16.3405,-1.56033 -16.2087,-2.59358 -16.0116,-3.61637 -15.75,-4.62461 -15.425,-5.61423 -15.0378,-6.58123 -14.5901,-7.52174 -14.0837,-8.43196 -13.5206,-9.30823 -12.903,-10.14702 -12.2334,-10.94494 -11.5146,-11.69879 -10.74952,-12.4056 -9.94102,-13.0623 -9.09254,-13.6666 -8.20745,-14.2157 -7.2893,-14.7076 -6.34182,-15.1404 -5.36878,-15.5121 -4.37414,-15.8213 -3.36188,-16.067 -2.33609,-16.2478 -1.30088,-16.3632 -0.26044,-16.4129 0.78106,-16.3963 1.81939,-16.3137 2.85042,-16.1656 3.86996,-15.9521 4.87392,-15.6747 5.85825,-15.3339 6.81899,-14.9315 7.75228,-14.469 8.65435,-13.9481 9.52158,-13.3712 10.35045,-12.7404 11.13771,-12.0582 11.88,-11.3276 12.5745,-10.5513 13.2184,-9.7325 13.8091,-8.8746 14.3442,-7.9808 14.8214,-7.0551 15.2391,-6.1008 15.5953,-5.122 15.8888,-4.1225 16.1182,-3.1066 16.2829,-2.078 16.3818,-1.0411 16.4149,0 16.3819,1.0411 16.2828,2.078 16.1183,3.1066 15.8887,4.1225 15.5953,5.122 15.2391,6.1008 14.8215,7.0551 14.3441,7.9808 13.8091,8.8746 13.2184,9.7325 12.5746,10.5513 11.88,11.3276 11.1376,12.0582 10.3505,12.7404 9.5216,13.3712 8.6543,13.9481 7.7523,14.469 6.819,14.9315 5.8582,15.3339 4.874,15.6747 3.8699,15.9521 2.8504,16.1656 1.8194,16.3137 0.7811,16.3963 -0.2605,16.4129 -1.3008,16.3632 -2.3361,16.2478 -3.3619,16.067 -4.3741,15.8213 -5.3688,15.5121 -6.3418,15.1404 -7.2893,14.7076 -8.2075,14.2157 -9.0925,13.6666 -9.9411,13.0623 -10.7494,12.4056 -11.5147,11.69879 -12.2334,10.94494 -12.903,10.14702 -13.5205,9.30823 -14.0838,8.43196 -14.5901,7.52174 -15.0378,6.58123 -15.425,5.61423 -15.75,4.62461 -16.0115,3.61637 -16.2087,2.59358 -16.3406,1.56033 -16.4066,0.52081" />
    </clipPath>
    <clipPath
       id="clipPath29990-7-2"
       clipPathUnits="userSpaceOnUse">
      <path
         inkscape:connector-curvature="0"
         id="path29992-2-2"
         style="fill:#a5ffff;fill-opacity:1;stroke:none;stroke-width:0.80000001;stroke-linecap:round;stroke-linejoin:round;stroke-miterlimit:10;stroke-dasharray:0.8, 2.4;stroke-dashoffset:0;stroke-opacity:1"
         d="m 290.4454,551.98864 -16.4067,-0.52081 -16.3405,-1.56033 -16.2087,-2.59358 -16.0116,-3.61637 -15.75,-4.62461 -15.425,-5.61423 -15.0378,-6.58123 -14.5901,-7.52174 -14.0837,-8.43196 -13.5206,-9.30823 -12.903,-10.14702 -12.2334,-10.94494 -11.5146,-11.69879 -10.74952,-12.4056 -9.94102,-13.0623 -9.09254,-13.6666 -8.20745,-14.2157 -7.2893,-14.7076 -6.34182,-15.1404 -5.36878,-15.5121 -4.37414,-15.8213 -3.36188,-16.067 -2.33609,-16.2478 -1.30088,-16.3632 -0.26044,-16.4129 0.78106,-16.3963 1.81939,-16.3137 2.85042,-16.1656 3.86996,-15.9521 4.87392,-15.6747 5.85825,-15.3339 6.81899,-14.9315 7.75228,-14.469 8.65435,-13.9481 9.52158,-13.3712 10.35045,-12.7404 11.13771,-12.0582 11.88,-11.3276 12.5745,-10.5513 13.2184,-9.7325 13.8091,-8.8746 14.3442,-7.9808 14.8214,-7.0551 15.2391,-6.1008 15.5953,-5.122 15.8888,-4.1225 16.1182,-3.1066 16.2829,-2.078 16.3818,-1.0411 h 16.4149 l 16.3819,1.0411 16.2828,2.078 16.1183,3.1066 15.8887,4.1225 15.5953,5.122 15.2391,6.1008 14.8215,7.0551 14.3441,7.9808 13.8091,8.8746 13.2184,9.7325 12.5746,10.5513 11.88,11.3276 11.1376,12.0582 10.3505,12.7404 9.5216,13.3712 8.6543,13.9481 7.7523,14.469 6.819,14.9315 5.8582,15.3339 4.874,15.6747 3.8699,15.9521 2.8504,16.1656 1.8194,16.3137 0.7811,16.3963 -0.2605,16.4129 -1.3008,16.3632 -2.3361,16.2478 -3.3619,16.067 -4.3741,15.8213 -5.3688,15.5121 -6.3418,15.1404 -7.2893,14.7076 -8.2075,14.2157 -9.0925,13.6666 -9.9411,13.0623 -10.7494,12.4056 -11.5147,11.69879 -12.2334,10.94494 -12.903,10.14702 -13.5205,9.30823 -14.0838,8.43196 -14.5901,7.52174 -15.0378,6.58123 -15.425,5.61423 -15.75,4.62461 -16.0115,3.61637 -16.2087,2.59358 -16.3406,1.56033 -16.4066,0.52081" />
    </clipPath>
  </defs>
  <sodipodi:namedview
     id="base"
     pagecolor="#ffffff"
     bordercolor="#666666"
     borderopacity="1.0"
     inkscape:pageopacity="0.0"
     inkscape:pageshadow="2"
     inkscape:zoom="5.3670886"
     inkscape:cx="29.008475"
     inkscape:cy="66.203142"
     inkscape:document-units="px"
     inkscape:current-layer="layer3"
     showgrid="false"
     units="px"
     inkscape:pagecheckerboard="true"
     inkscape:window-width="1920"
     inkscape:window-height="1017"
     inkscape:window-x="1912"
     inkscape:window-y="-8"
     inkscape:window-maximized="1" />
  <metadata
     id="metadata5">
    <rdf:RDF>
      <cc:Work
         rdf:about="">
        <dc:format>image/svg+xml</dc:format>
        <dc:type
           rdf:resource="http://purl.org/dc/dcmitype/StillImage" />
        <dc:title />
        <dc:creator>
          <cc:Agent>
            <dc:title>Severi Vidnäs</dc:title>
          </cc:Agent>
        </dc:creator>
        <dc:rights>
          <cc:Agent>
            <dc:title>All Rights Reserved</dc:title>
          </cc:Agent>
        </dc:rights>
      </cc:Work>
    </rdf:RDF>
  </metadata>
  <g
     inkscape:label="Layer 1"
     inkscape:groupmode="layer"
     id="layer1"
     transform="translate(0,-922.06665)"
     style="display:inline;opacity:1"
     sodipodi:insensitive="true">
    <circle
       style="opacity:1;fill:#0000ff;fill-opacity:1;fill-rule:nonzero;stroke:none;stroke-width:0.37752959;stroke-linecap:butt;stroke-linejoin:miter;stroke-miterlimit:2;stroke-dasharray:none;stroke-dashoffset:0;stroke-opacity:1;paint-order:markers stroke fill"
       id="path4515"
       cx="64"
       cy="986.06665"
       r="64" />
  </g>
  <g
     inkscape:groupmode="layer"
     id="layer3"
     inkscape:label="Landmass"
     style="opacity:1">
    <path
       style="opacity:1;fill:#338000;fill-opacity:1;fill-rule:nonzero;stroke:#000000;stroke-width:0;stroke-linecap:butt;stroke-linejoin:miter;stroke-miterlimit:4;stroke-dasharray:none;stroke-dashoffset:0;stroke-opacity:1;paint-order:markers stroke fill"
       d="m 75.703125,35.896484 -3.449219,1.69336 -1.410156,3.02539 -3.09375,-0.04492 -3.509766,1.466797 0.882813,1.902344 -3.667969,-0.285156 -0.767578,1.632812 4.330078,2.611329 3.896484,0.576171 2.042969,3.076172 1.382813,1.650391 1.945312,0.800781 0.96875,-0.05273 -1.15039,1.667969 1.521484,2.740234 -1.302734,0.65625 -0.730469,0.839844 0.09766,0.972656 -0.480469,0.423828 0.81836,0.402344 3.15039,4.857422 -0.796875,1.816406 1.746094,3.3125 -1.478515,5.003906 -1.492188,0.197266 -4.431641,-0.07617 -2.443359,2.568359 -2.347656,5.796875 0.294922,2.796875 0.855468,0.359375 1.478516,-0.892578 -0.08203,1.164063 -0.914063,0.630859 0.621094,2.125 -1.900391,0.675781 -1.554687,1.851563 -3.402344,1.589844 0.214844,0.585937 1.578125,1.191406 -0.412109,2.119141 -3.611329,-0.566406 -1.033203,0.423828 -0.451172,4.130858 1.933594,0.94922 -0.796875,1.47266 -2.318359,0.93945 -0.333985,1.56641 -2.78125,0.84765 -4.197265,2.91016 -1.820313,4.28125 3.41211,5.24609 5.076171,2.95704 5.925782,0.25585 7.007812,-1.00781 1.63086,0.97266 2.365234,-0.51172 1.927734,2.96875 c 0,0 7.513427,-1.53008 11.107422,-2.82617 3.947923,-1.42372 9.984828,-4.2678 13.417969,-6.68164 5.20422,-3.65908 8.23438,-6.62891 8.23438,-6.62891 l 2.01563,-7.86328 -0.29688,-2.4707 -1.2207,-1.136724 -5.62891,5.433594 -3.818364,0.72266 -7.621093,-2.58008 -2.208985,-1.17383 1.75,-0.21289 3.992188,0.53125 1.617187,0.89063 4.812497,0.29492 1.80859,1.03125 4.20899,-7.003911 1.26758,-5.615234 -1.02344,-2.839844 -3.03125,1.443359 -1.27735,3.257813 -5.185539,-0.0039 4.539059,-2.140625 4.30078,-4.783203 1.52539,-3.863282 1.46289,-0.521484 2.9082,-1.857422 -0.1875,-1.462891 3.53516,0.01758 3.125,-0.988282 2.88867,-1.716797 -0.39062,-1.615234 2.33204,-1.263672 -0.67189,-1.484375 -2.1289,1.855469 -3.22852,-1.189453 -3.46484,-10.117188 3.98633,-3.804687 -0.85352,-1.601563 5.29492,-2.101562 1.99024,-3.298828 -0.0703,6.298828 2.66993,-4.589844 -0.75977,-3.855469 -1.17578,-1.660156 -1.89844,1.449219 -1.90625,4.869141 -2.30859,-0.417969 1.61914,-5.625 -1.63281,-1.804688 -1.4961,-1.599609 -1.70898,0.910156 -1.38672,3.585938 -1.46875,-0.535157 -1.27148,-2.203125 0.64062,-0.603515 1.31836,0.755859 v -0.980469 l -1.27148,-0.830078 -0.59766,0.875 -3.55664,-4.527343 -2.53516,-1.423829 -2.4707,-0.513671 -1.97656,1.144531 -0.87305,2.667969 -2.873043,-1.166016 1.154297,3.257812 -2.732421,-1.083984 0.917968,-1.103516 -1.453125,-1.091796 0.908203,-0.861329 -0.298828,-1.546875 1.103516,-0.566406 0.746094,-0.283203 -1.81836,-1.408203 -0.964844,0.550781 -0.736328,2.283203 L 90.283228,38.82814 87.164087,38.48439 84.505859,39 82.318359,40.595703 84.683594,36.875 82.25,37.785156 l -1.589844,3.832032 2.41211,2.480468 -4.664063,0.490235 -4.478515,-2.748047 -2.457032,0.271484 3.509766,-2.984375 z m -3.640625,45.052735 -0.529297,2.476562 0.611328,1.554688 1.121094,0.0625 1.419922,-1.203125 0.402344,0.792968 -0.94336,0.28125 -0.730469,0.703126 -0.412109,0.732421 0.3125,0.177735 0.257813,-0.363282 0.36914,-0.0078 0.3125,0.902344 -0.726562,-0.216797 -0.339844,0.203125 0.226562,1.910156 -0.640624,0.816406 -0.558594,-0.169922 -1.416016,1.105469 -0.660156,-0.345703 -0.984375,0.519531 0.488281,-0.949218 1.597656,-1.207032 -0.142578,-1.910156 0.41211,-0.916015 -1.048828,-0.876954 0.126953,-1.632812 0.591797,-1.134766 -0.132813,-1.177734 z m 18.003906,2.878906 0.681641,0.539063 -0.285156,1.789062 2.267578,0.06445 0.542969,-0.714844 0.917968,0.240235 -0.490234,0.898437 1.414062,0.195313 1.214844,0.759765 -1.134766,1.738282 -1.519531,0.671875 -1.361328,-1.667969 -3.332031,-0.585938 0.09766,-2.207031 z m -5.652344,5.589844 0.230469,1.527343 -0.875,0.638672 -0.527343,-0.332031 z m 3.390626,1.349609 0.53125,0.267578 -0.115235,0.925782 -0.628906,0.529296 -1.244141,0.908204 -1.230468,0.146484 -1.105469,0.779297 -0.734375,1.185547 -1.382813,0.728515 -1.134765,-0.332031 0.121093,-0.951172 -0.160156,-0.966797 0.236328,-0.265625 -0.18164,-0.580078 0.466797,-1.039062 1.269531,-0.05664 -0.242188,0.470703 0.470703,-0.101562 0.560547,0.302734 0.753907,-1.091797 1.140624,-0.544922 z m -0.285157,5.66211 0.960938,1.330078 0.326172,2.373044 -1.863282,1.12891 -1.365234,1.29492 -5.761719,1.13477 -0.992187,0.99609 0.148437,1.13086 -3.160156,0.33398 -0.568359,-0.5332 -3.773438,-0.0957 0.390625,-1.14844 -0.292969,-1.25391 -5.05664,0.78321 -4.052735,1.33008 -2.386718,-0.7168 2.412109,-0.58399 1.470703,-1.30664 0.570313,-1.60351 1.634765,-0.85352 0.04492,-0.949217 1.589844,0.0957 1.265625,-1.048828 2.585937,1.388672 2.449219,0.693363 0.326172,1.20703 -1.998047,0.88086 1.992188,0.30078 -0.142578,-0.57812 0.541015,-0.45313 0.533203,-1.03711 -0.527344,-0.734376 0.951172,-0.333985 -2.294922,-0.480468 -2.169921,-1.328125 0.634765,-0.744141 4.109375,1.320313 0.482422,1.091797 2.882813,1.753905 0.292968,-0.37304 -0.05273,-0.60938 0.708984,-0.20117 -0.441406,-0.648441 -0.789062,-0.01367 -0.22461,-0.46875 -0.507812,-0.376953 0.96875,-0.05078 1.152344,-1.009765 1.791015,2.154297 1.544922,-0.416016 0.648437,-0.359375 -0.06641,-0.46875 1.298828,-0.234375 0.898438,-0.679688 0.185547,-0.542968 z"
       id="rect1146"
       inkscape:connector-curvature="0" />
    <path
       style="opacity:1;fill:#008000;fill-opacity:1;fill-rule:nonzero;stroke:#000000;stroke-width:0;stroke-linecap:butt;stroke-linejoin:miter;stroke-miterlimit:4;stroke-dasharray:none;stroke-dashoffset:0;stroke-opacity:1;paint-order:markers stroke fill"
       d="m 69.284249,99.690026 0.490514,-0.533452 0.156072,0.596809 -0.110097,0.506657 0.455847,0.58084 0.0142,1.00451 -0.741967,0.2596 -0.269874,-1.32377 0.484094,-0.28115 -0.241776,-0.28583 z"
       id="rect1153"
       inkscape:connector-curvature="0"
       sodipodi:nodetypes="ccccccccccc" />
    <path
       style="opacity:1;fill:#008000;fill-opacity:1;fill-rule:nonzero;stroke:#000000;stroke-width:0;stroke-linecap:butt;stroke-linejoin:miter;stroke-miterlimit:4;stroke-dasharray:none;stroke-dashoffset:0;stroke-opacity:1;paint-order:markers stroke fill"
       d="m 80.707196,101.31075 1.539043,-0.47249 -0.881864,0.68061 -0.892707,0.15365 z"
       id="rect1156"
       inkscape:connector-curvature="0"
       sodipodi:nodetypes="ccccc" />
    <path
       style="opacity:1;fill:#008000;fill-opacity:1;fill-rule:nonzero;stroke:#000000;stroke-width:0;stroke-linecap:butt;stroke-linejoin:miter;stroke-miterlimit:4;stroke-dasharray:none;stroke-dashoffset:0;stroke-opacity:1;paint-order:markers stroke fill"
       d="m 86.382374,98.388755 0.862753,-0.805396 -0.03666,0.596312 -0.473254,0.664487 -0.569624,0.04681 z"
       id="rect1159"
       inkscape:connector-curvature="0"
       sodipodi:nodetypes="cccccc" />
    <path
       style="opacity:1;fill:#008000;fill-opacity:1;fill-rule:nonzero;stroke:#000000;stroke-width:0;stroke-linecap:butt;stroke-linejoin:miter;stroke-miterlimit:4;stroke-dasharray:none;stroke-dashoffset:0;stroke-opacity:1;paint-order:markers stroke fill"
       d="m 71.806693,87.342718 0.294935,-0.207134 -0.201528,0.89283 -0.141258,-0.224417 z"
       id="rect1176"
       inkscape:connector-curvature="0"
       sodipodi:nodetypes="ccccc" />
    <path
       style="opacity:1;fill:#008000;fill-opacity:1;fill-rule:nonzero;stroke:#000000;stroke-width:0;stroke-linecap:butt;stroke-linejoin:miter;stroke-miterlimit:4;stroke-dasharray:none;stroke-dashoffset:0;stroke-opacity:1;paint-order:markers stroke fill"
       d="m 71.670338,85.160968 0.325442,0.167821 0.04716,0.17291 -0.428194,0.01595 z"
       id="rect1179"
       inkscape:connector-curvature="0"
       sodipodi:nodetypes="ccccc" />
    <path
       style="opacity:1;fill:#338000;fill-opacity:1;fill-rule:nonzero;stroke:#000000;stroke-width:0;stroke-linecap:butt;stroke-linejoin:miter;stroke-miterlimit:4;stroke-dasharray:none;stroke-dashoffset:0;stroke-opacity:1;paint-order:markers stroke fill"
       d="m 60.402906,90.284219 0.564834,0.175159 -0.129677,-0.388564 0.227701,-0.565772 -0.196196,-0.746042 0.840708,-0.769128 1.027076,-0.436391 -0.57113,1.040113 0.863201,0.19943 -0.485229,1.17942 0.500686,0.32738 0.252936,0.731622 0.609228,0.789375 0.135159,0.586216 0.642043,0.042 -0.03565,0.498834 -0.318046,0.33496 0.251775,0.34049 -0.5735,0.310195 -0.823646,0.131751 -1.188457,-0.01827 -0.117876,0.221504 -1.06389,-0.0065 1.082902,-0.959892 -0.75298,-0.313552 0.645821,-0.491773 -0.391007,-0.35135 0.245428,-0.268372 0.693327,-0.02415 -0.374416,-0.975768 -0.75782,0.05825 -0.405132,0.617229 -0.17022,1.108581 -1.111792,0.257874 -0.888583,-0.06094 0.410761,-1.957881 z"
       id="rect1182"
       inkscape:connector-curvature="0"
       sodipodi:nodetypes="ccccccccccccccccccccccccccccccccccccc" />
    <path
       style="opacity:1;fill:#ffffff;fill-opacity:1;fill-rule:nonzero;stroke:#000000;stroke-width:0;stroke-linecap:butt;stroke-linejoin:miter;stroke-miterlimit:4;stroke-dasharray:none;stroke-dashoffset:0;stroke-opacity:1;paint-order:markers stroke fill"
       d="m 73.566379,67.36161 0.610858,2.095658 1.179371,2.060399 1.286037,0.35849 -1.414233,0.7274 -1.724921,-2.486444 z"
       id="rect1185"
       inkscape:connector-curvature="0"
       sodipodi:nodetypes="ccccccc" />
    <path
       style="opacity:1;fill:#008000;fill-opacity:1;fill-rule:nonzero;stroke:#000000;stroke-width:0;stroke-linecap:butt;stroke-linejoin:miter;stroke-miterlimit:4;stroke-dasharray:none;stroke-dashoffset:0;stroke-opacity:1;paint-order:markers stroke fill"
       d="m 69.672789,53.290245 1.411541,0.854288 0.902188,0.937595 -1.003545,0.351009 z"
       id="rect1188"
       inkscape:connector-curvature="0"
       sodipodi:nodetypes="ccccc" />
    <path
       style="opacity:1;fill:#338000;fill-opacity:1;fill-rule:nonzero;stroke:#000000;stroke-width:0;stroke-linecap:butt;stroke-linejoin:miter;stroke-miterlimit:4;stroke-dasharray:none;stroke-dashoffset:0;stroke-opacity:1;paint-order:markers stroke fill"
       d="m 56.677882,80.6036 0.564192,0.821918 1.532577,-0.15069 0.514785,1.252605 -0.610018,0.483896 -1.473714,0.287084 -1.214284,-0.809968 0.320046,-0.264343 -0.447798,-0.677055 0.62792,-0.29175 -0.378095,-0.338539 z"
       id="rect1191"
       inkscape:connector-curvature="0"
       sodipodi:nodetypes="cccccccccccc" />
    <path
       style="opacity:1;fill:#338000;fill-opacity:1;fill-rule:nonzero;stroke:#000000;stroke-width:0;stroke-linecap:butt;stroke-linejoin:miter;stroke-miterlimit:4;stroke-dasharray:none;stroke-dashoffset:0;stroke-opacity:1;paint-order:markers stroke fill"
       d="m 65.355449,71.50342 0.877448,-0.680783 1.188532,-0.243529 -0.100518,0.782708 -0.711869,-0.03141 1.297295,1.02162 -0.176961,0.490069 -0.657697,-0.623944 -0.237257,1.496503 -1.063174,-1.035348 z"
       id="rect1194"
       inkscape:connector-curvature="0"
       sodipodi:nodetypes="ccccccccccc" />
    <path
       style="opacity:1;fill:#ffffff;fill-opacity:1;fill-rule:nonzero;stroke:#000000;stroke-width:0;stroke-linecap:butt;stroke-linejoin:miter;stroke-miterlimit:4;stroke-dasharray:none;stroke-dashoffset:0;stroke-opacity:1;paint-order:markers stroke fill"
       d="m 72.649722,61.015748 0.531451,1.037668 -1.385097,1.405467 -1.099273,-0.462044 z"
       id="rect1197"
       inkscape:connector-curvature="0"
       sodipodi:nodetypes="ccccc" />
    <path
       style="opacity:1;fill:#338000;fill-opacity:1;fill-rule:nonzero;stroke:#000000;stroke-width:0;stroke-linecap:butt;stroke-linejoin:miter;stroke-miterlimit:4;stroke-dasharray:none;stroke-dashoffset:0;stroke-opacity:1;paint-order:markers stroke fill"
       d="m 84.067928,34.061327 1.771538,0.121258 1.009767,1.245592 0.678315,-2.111065 2.480864,-1.592107 3.710654,1.287246 -0.17299,0.979422 1.090409,-0.295577 1.007273,0.588957 0.240344,0.584932 1.154358,-0.449822 0.702787,1.071323 -0.792366,0.876188 -2.818688,-0.913225 -1.743538,-1.412826 -1.153223,0.368812 -0.138393,-0.542588 -2.418124,0.148493 -1.104454,1.766328 -1.204309,-0.112098 -1.319769,1.02794 -0.271972,-1.146013 -1.004237,-0.782856 z"
       id="rect1200"
       inkscape:connector-curvature="0"
       sodipodi:nodetypes="cccccccccccccccccccccccc" />
    <path
       style="opacity:1;fill:#008000;fill-opacity:1;fill-rule:nonzero;stroke:#000000;stroke-width:0;stroke-linecap:butt;stroke-linejoin:miter;stroke-miterlimit:4;stroke-dasharray:none;stroke-dashoffset:0;stroke-opacity:1;paint-order:markers stroke fill"
       d="m 105.01937,37.984374 2.24168,-0.288244 -0.66429,1.107643 -1.22421,-0.232047 z"
       id="rect1203"
       inkscape:connector-curvature="0"
       sodipodi:nodetypes="ccccc" />
    <path
       style="opacity:1;fill:#338000;fill-opacity:1;fill-rule:nonzero;stroke:#000000;stroke-width:0;stroke-linecap:butt;stroke-linejoin:miter;stroke-miterlimit:4;stroke-dasharray:none;stroke-dashoffset:0;stroke-opacity:1;paint-order:markers stroke fill"
       d="m 116.86925,36.29207 0.35612,-0.694388 -0.19656,-1.727045 1.83368,1.294308 0.47489,-2.170595 1.03969,1.167099 3.70497,8.626185 -0.48866,0.22027 -0.55389,-0.398144 -0.38746,-1.600379 -0.76125,-0.06242 -1.04623,-1.68939 -1.05745,-0.621994 -0.80745,-1.230432 z"
       id="rect1206"
       inkscape:connector-curvature="0"
       sodipodi:nodetypes="ccccccccccccccc" />
    <path
       style="opacity:1;fill:#338000;fill-opacity:1;fill-rule:nonzero;stroke:#000000;stroke-width:0;stroke-linecap:butt;stroke-linejoin:miter;stroke-miterlimit:4;stroke-dasharray:none;stroke-dashoffset:0;stroke-opacity:1;paint-order:markers stroke fill"
       d="m 113.24341,28.440544 0.47592,1.267148 -0.403,0.394094 1.38964,1.663169 -0.70627,0.216121 -1.04582,-0.786609 0.17516,1.00852 -0.91574,0.0547 0.52276,0.681203 -0.55844,0.576241 -0.88034,0.549673 0.9857,0.11553 -0.0329,0.618364 -0.74525,0.987299 -0.49444,0.861893 -1.73963,0.105727 -0.77338,-1.32574 0.7997,-0.682857 1.23974,0.314194 0.51658,-0.772165 -0.84833,-1.508158 0.1656,-0.711005 0.70676,-0.362539 -0.68261,-0.15832 -0.382,-0.902756 1.24266,-0.807474 -0.43785,-0.562093 0.82821,-1.147149 0.57866,0.09321 0.41726,0.636858 0.20264,-0.410564 z"
       id="rect1209"
       inkscape:connector-curvature="0"
       sodipodi:nodetypes="cccccccccccccccccccccccccccccccc" />
    <path
       style="opacity:1;fill:#338000;fill-opacity:1;fill-rule:nonzero;stroke:#000000;stroke-width:0;stroke-linecap:butt;stroke-linejoin:miter;stroke-miterlimit:4;stroke-dasharray:none;stroke-dashoffset:0;stroke-opacity:1;paint-order:markers stroke fill"
       d="m 113.02509,24.211401 1.12441,0.226171 0.13887,0.76409 h -1.03752 z"
       id="rect1212"
       inkscape:connector-curvature="0"
       sodipodi:nodetypes="ccccc" />
    <path
       style="opacity:1;fill:#338000;fill-opacity:1;fill-rule:nonzero;stroke:#000000;stroke-width:0;stroke-linecap:butt;stroke-linejoin:miter;stroke-miterlimit:4;stroke-dasharray:none;stroke-dashoffset:0;stroke-opacity:1;paint-order:markers stroke fill"
       d="m 116.35634,27.684502 2.65689,3.918603 -0.21508,0.215454 -0.8099,-0.688536 -1.53763,-2.902045 -1.13967,-0.86725 z"
       id="rect1215"
       inkscape:connector-curvature="0"
       sodipodi:nodetypes="ccccccc" />
    <path
       style="opacity:1;fill:#ffffff;fill-opacity:1;fill-rule:nonzero;stroke:#000000;stroke-width:0;stroke-linecap:butt;stroke-linejoin:miter;stroke-miterlimit:4;stroke-dasharray:none;stroke-dashoffset:0;stroke-opacity:1;paint-order:markers stroke fill"
       d="m 55.136515,66.332361 1.084409,0.772585 0.682265,-0.540242 1.412948,0.190566 2.789651,1.089668 0.471526,1.588602 0.932312,0.737449 -2.106053,2.362248 -0.117159,2.326347 -2.542468,3.26772 -1.299543,0.446119 -1.526528,-0.335305 -1.98798,0.558216 -1.374653,-0.348515 -3.723271,2.204373 -0.962484,-1.876944 0.925028,-2.406223 1.536404,-2.083065 1.678255,-1.676786 1.568947,-1.136494 1.640527,-1.927561 -0.446539,-2.083016 z"
       id="rect1218"
       inkscape:connector-curvature="0"
       sodipodi:nodetypes="ccccccccccccccccccccccc" />
    <path
       style="opacity:1;fill:#338000;fill-opacity:1;fill-rule:nonzero;stroke:#000000;stroke-width:0;stroke-linecap:butt;stroke-linejoin:miter;stroke-miterlimit:4;stroke-dasharray:none;stroke-dashoffset:0;stroke-opacity:1;paint-order:markers stroke fill"
       d="m 13.186159,50.415335 0.703806,-0.658373 1.751445,0.223909 2.773328,-2.236077 4.697731,-1.578181 0.711523,-1.086977 -1.040582,-0.22338 -3.275646,1.364652 -2.377828,0.922115 -0.221331,-0.542415 1.908003,-1.452257 0.904191,0.298294 1.801587,-1.411023 0.249923,0.716857 1.464405,-0.761721 2.220781,-0.154566 2.092077,-1.516084 4.021985,-0.248837 2.021782,0.860387 3.736505,2.31805 2.348703,-0.483526 3.360657,0.789597 -0.228565,-1.251691 4.694693,1.46043 3.481941,-1.312135 3.584655,-5.863497 2.356865,-1.802821 -2.492074,4.500424 1.794155,-0.740882 2.276323,1.491961 -0.257701,1.349962 -1.124853,0.77772 0.514612,0.743943 1.451047,-0.586957 0.566686,0.530291 -0.446242,0.891127 -1.625163,0.417345 2.387871,0.946468 -0.751795,0.848535 -0.209035,0.965225 -0.986089,1.259321 -1.390652,-9.14e-4 -2.124127,0.945768 -2.04793,0.492242 -0.850634,2.649974 -3.092018,2.453308 -0.478366,-0.363132 -0.503846,1.37569 0.440711,1.282605 0.330293,-1.954672 0.895892,-0.469156 0.730981,-0.127134 -0.411404,1.306307 1.118187,-1.257666 0.391996,0.221504 0.522587,0.179702 -0.136542,-1.400727 0.960978,-0.183776 1.27616,1.260383 -0.194911,0.7054 -1.29174,0.771696 -1.279889,1.136285 0.62913,1.080779 -2.981353,0.341898 -0.780955,-0.390737 0.139924,-0.927398 -1.063174,0.569994 -0.191677,1.105323 0.526735,0.306219 0.341231,-0.355997 0.691475,0.53997 -0.863201,0.526168 -0.509156,-0.183875 0.348491,0.728264 0.76372,-0.566834 1.742057,-0.0054 -0.222985,-0.70787 1.039594,-0.585401 0.702289,0.526686 0.07338,1.275296 -0.190319,1.029891 -1.309987,-0.889522 -1.909116,0.377897 -0.694339,1.209247 -0.953497,0.451823 2.023807,-0.315997 1.081273,-0.69066 1.748156,0.469625 0.211825,2.096547 -0.807252,0.947744 -0.948212,2.215632 -0.875967,0.422909 -0.817671,2.55669 -1.547589,-0.03299 0.540365,-1.306058 -0.371873,-0.16864 -1.091347,1.576947 -0.94278,0.313157 0.152368,-1.604107 -0.781696,1.351517 0.07644,-1.830599 0.758091,-1.544824 -0.382786,-1.121396 0.499477,-0.318219 0.696264,1.219494 0.443848,-0.271824 1.368652,0.150788 -0.751177,-1.05868 0.425773,-0.267134 0.830436,0.582464 0.743129,-1.061125 -0.282788,-1.148338 -1.2889,0.166443 -0.817498,0.294936 -1.242161,-0.876683 -1.308184,1.600354 0.12353,-0.892559 -0.742931,-0.759449 1.534626,-0.734733 -0.747671,-0.302466 -1.326209,-1.663268 -2.629233,-1.038113 -0.23501,0.647821 -1.079446,0.271405 -0.06773,0.67987 -0.536242,1.183272 -0.812634,1.45801 -0.06644,1.346332 -1.529071,0.483378 -1.084581,0.986187 0.516019,0.62992 1.960055,-0.729993 1.588576,1.123149 1.641243,-1.235814 2.732516,-0.333306 0.355354,1.696131 -0.480094,1.719341 -0.936262,0.299701 -0.756017,1.21063 2.062276,0.469131 -1.648947,2.217582 -0.54034,0.359207 -0.422045,3.03313 -0.758289,1.23621 -1.524799,0.474044 0.507624,1.086286 -0.807053,1.523787 -0.615031,0.192714 -1.393814,-3.415299 3.009402,-0.368145 -1.617588,-0.93162 -1.638947,-3.102388 -0.69261,0.313305 0.398687,1.235123 -1.321937,0.111333 -0.388737,1.819981 1.283469,0.52644 -0.143308,0.811078 -3.255646,-2.171435 0.135233,-0.636043 1.267247,0.331898 -2.39163,-2.530321 -1.502405,0.20748 -3.143722,-2.143312 -2.183706,0.29817 -3.397126,-3.635791 -3.652756,1.443689 -0.565098,-0.76614 2.866344,-2.462914 -0.887473,-4.290549 0.645697,-3.792604 -1.533614,-3.013328 -4.172079,-0.293923 -1.691618,2.010672 -0.0089,3.00271 1.505188,1.247765 0.39145,3.500268 -3.4685973,-1.978011 -0.057841,3.228362 -0.7903476,1.983758 -2.2834536,-0.468045 -0.7471382,2.351063 0.7216347,2.318446 -0.037691,2.586912 1.9118413,1.577759 1.8061007,3.257399 -0.7495014,-0.467872 3.8419104,10.247333 -0.207289,4.553535 2.708447,5.740685 -1.413866,2.56533 c 0,0 -1.15165,-0.79841 -5.5929625,-8.140557 C 6.8747734,93.126432 4.928185,89.026834 3.6982516,85.497919 1.4033377,78.91337 0.92025459,74.560377 0.92025459,74.560377 L 3.1237683,76.86265 5.7102929,76.412284 4.9212342,73.300192 5.7890798,69.122283 6.4949616,67.739013 8.0208104,65.785082 8.2489242,62.278179 9.7266797,59.646823 9.6228338,57.426351 Z"
       id="rect1221"
       inkscape:connector-curvature="0"
       sodipodi:nodetypes="cccccccccccccccccccccccccccccccccccccccccccccccccccccccccccccccccccccccccccccccccccccccccccccccccccccccccccccccccccccccccccccccccccccccccccccccccccccccccccccccccccccccccccccccccccccccccccccccssccccccccccc" />
    <path
       style="opacity:1;fill:#338000;fill-opacity:1;fill-rule:nonzero;stroke:#000000;stroke-width:0;stroke-linecap:butt;stroke-linejoin:miter;stroke-miterlimit:4;stroke-dasharray:none;stroke-dashoffset:0;stroke-opacity:1;paint-order:markers stroke fill"
       d="m 13.472514,68.131401 0.573436,0.67891 0.407786,1.231025 0.263173,1.695933 -0.230512,1.309691 0.205917,0.882065 -0.414223,1.414998 0.06008,0.87051 -0.21981,0.130048 0.09294,0.885247 -0.17685,0.432197 -0.898823,-3.003279 0.587372,0.209356 0.02802,-1.051718 0.198445,-0.672388 0.123989,-1.198235 -0.08987,-1.159124 0.08936,-0.24459 -0.450192,-1.457056 z"
       id="rect1224"
       inkscape:connector-curvature="0"
       sodipodi:nodetypes="cccccccccccccccccccc" />
    <path
       style="opacity:1;fill:#338000;fill-opacity:1;fill-rule:nonzero;stroke:#000000;stroke-width:0;stroke-linecap:butt;stroke-linejoin:miter;stroke-miterlimit:4;stroke-dasharray:none;stroke-dashoffset:0;stroke-opacity:1;paint-order:markers stroke fill"
       d="m 12.939665,77.772246 0.737526,1.695909 0.536634,-0.789103 0.222857,1.149321 0.39909,0.869572 -0.01333,1.014829 0.04684,1.355517 -0.362769,-0.235652 -0.657635,-1.926721 -0.531158,-0.280466 0.12829,-0.407379 z"
       id="rect1227"
       inkscape:connector-curvature="0"
       sodipodi:nodetypes="cccccccccccc" />
    <path
       style="opacity:1;fill:#ffffff;fill-opacity:1;fill-rule:nonzero;stroke:#000000;stroke-width:0;stroke-linecap:butt;stroke-linejoin:miter;stroke-miterlimit:4;stroke-dasharray:none;stroke-dashoffset:0;stroke-opacity:1;paint-order:markers stroke fill"
       d="m 52.700984,58.689055 1.813389,-0.661648 0.605253,0.783918 -1.88445,0.752412 0.151677,1.833957 -0.706857,0.765104 1.111495,1.412183 2.173411,-0.870732 1.33927,0.722511 1.238309,1.536701 0.134123,1.244208 -3.384794,-0.27333 -1.941376,-0.303008 -0.195504,-1.54875 -0.424416,-0.372786 -0.133381,1.958153 -0.690117,-0.0069 -0.1778,-3.200586 0.524612,-0.939052 0.796091,-0.89767 -0.481921,-0.557723 z"
       id="rect1230"
       inkscape:connector-curvature="0"
       sodipodi:nodetypes="cccccccccccccccccccccc" />
    <path
       style="opacity:1;fill:#338000;fill-opacity:1;fill-rule:nonzero;stroke:#000000;stroke-width:0;stroke-linecap:butt;stroke-linejoin:miter;stroke-miterlimit:4;stroke-dasharray:none;stroke-dashoffset:0;stroke-opacity:1;paint-order:markers stroke fill"
       d="m 42.16909,15.860428 0.582907,0.258556 -0.04072,0.390085 -1.047693,-0.05212 z"
       id="rect1233"
       inkscape:connector-curvature="0"
       sodipodi:nodetypes="ccccc" />
    <path
       style="opacity:1;fill:#a0aa00;fill-opacity:1;fill-rule:nonzero;stroke:#000000;stroke-width:0;stroke-linecap:butt;stroke-linejoin:miter;stroke-miterlimit:4;stroke-dasharray:none;stroke-dashoffset:0;stroke-opacity:1;paint-order:markers stroke fill"
       d="m 58.468892,103.7153 2.807279,-2.47288 3.24922,-0.21898 -0.570313,1.60351 -1.470703,1.30664 -2.412109,0.58399 z"
       id="rect843"
       inkscape:connector-curvature="0"
       sodipodi:nodetypes="ccccccc" />
    <path
       style="opacity:1;fill:#ffcc00;fill-opacity:1;fill-rule:nonzero;stroke:#000000;stroke-width:0;stroke-linecap:butt;stroke-linejoin:miter;stroke-miterlimit:4;stroke-dasharray:none;stroke-dashoffset:0;stroke-opacity:1;paint-order:markers stroke fill"
       d="m 49.121092,112.00001 4.197265,-2.91016 2.78125,-0.84765 0.333985,-1.56641 2.318359,-0.93945 0.796875,-1.47266 0.52344,0.2539 2.386718,0.7168 4.052735,-1.33008 5.05664,-0.78321 0.292969,1.25391 -0.390625,1.14844 3.773438,0.0957 0.568359,0.5332 3.160156,-0.33398 -0.148437,-1.13086 0.992187,-0.99609 5.761719,-1.13477 3.048668,-0.5999 9.829506,3.75495 3.818161,-0.72325 5.62984,-5.433744 1.22012,1.136654 0.29746,2.47077 -2.01563,7.86328 -15.240933,5.06652 -24.859143,5.35348 -16.593285,0.0819 -3.41211,-5.24609 z"
       id="rect846"
       inkscape:connector-curvature="0"
       sodipodi:nodetypes="cccccccccccccccccccccccccccccc" />
    <path
       style="opacity:1;fill:#ffcc00;fill-opacity:1;fill-rule:nonzero;stroke:#000000;stroke-width:0;stroke-linecap:butt;stroke-linejoin:miter;stroke-miterlimit:4;stroke-dasharray:none;stroke-dashoffset:0;stroke-opacity:1;paint-order:markers stroke fill"
       d="m 88.806641,100.13281 -0.326172,-2.373044 3.486327,-4.013669 5.599608,-0.01561 5.185546,0.0039 1.27735,-3.257813 3.03125,-1.443359 1.02343,2.839844 -1.26757,5.615234 -4.20887,7.003607 -1.8084,-1.03112 -4.813631,-0.29434 -1.615441,-0.89128 -5.743275,-0.31842 z"
       id="rect849"
       inkscape:connector-curvature="0"
       sodipodi:nodetypes="ccccccccccccccc" />
    <path
       style="opacity:1;fill:#ffdd55;fill-opacity:1;fill-rule:nonzero;stroke:#000000;stroke-width:0;stroke-linecap:butt;stroke-linejoin:miter;stroke-miterlimit:4;stroke-dasharray:none;stroke-dashoffset:0;stroke-opacity:1;paint-order:markers stroke fill"
       d="m 92.314453,88.341797 1.361328,1.667969 1.519531,-0.671875 1.134766,-1.738282 -1.214844,-0.759765 -1.414062,-0.195313 0.490234,-0.898437 -0.917968,-0.240235 -0.542969,0.714844 -2.267578,-0.06445 0.285156,-1.789062 6.675753,-11.527547 -0.903771,-21.329277 7.182451,3.836325 8.41275,23.754873 0.1875,1.462891 -4.37109,2.378906 -1.52539,3.863282 -4.30078,4.783203 -4.539064,2.140625 -5.59961,0.01563 -3.486327,4.013669 -0.960938,-1.330078 z"
       id="rect1333"
       inkscape:connector-curvature="0"
       sodipodi:nodetypes="cccccccccccccccccccccccc" />
    <path
       style="opacity:1;fill:#ffdd55;fill-opacity:1;fill-rule:nonzero;stroke:#000000;stroke-width:0;stroke-linecap:butt;stroke-linejoin:miter;stroke-miterlimit:4;stroke-dasharray:none;stroke-dashoffset:0;stroke-opacity:1;paint-order:markers stroke fill"
       d="m 10.940321,54.537302 2.245838,-4.121967 0.703806,-0.658373 1.751445,0.223909 2.773328,-2.236077 4.697731,-1.578181 0.711523,-1.086977 -1.040582,-0.22338 -5.653474,2.286767 -0.221331,-0.542415 1.908003,-1.452257 0.904191,0.298294 1.801587,-1.411023 0.249923,0.716857 1.464405,-0.761721 2.220781,-0.154566 0.727008,3.117332 -3.762857,1.448042 -9.591217,7.274175 -1.691618,2.010672 z"
       id="rect1336"
       inkscape:connector-curvature="0"
       sodipodi:nodetypes="ccccccccccccccccccccc" />
  </g>
</svg>
